<svg width="21" height="15" viewBox="0 0 21 15" fill="none" xmlns="http://www.w3.org/2000/svg">
<path d="M18.3333 0H1.83333C1.3471 0 0.880788 0.193154 0.536971 0.536971C0.193154 0.880787 0 1.3471 0 1.83333V12.8333C0 13.3196 0.193154 13.7859 0.536971 14.1297C0.880788 14.4735 1.3471 14.6667 1.83333 14.6667H18.3333C18.8196 14.6667 19.2859 14.4735 19.6297 14.1297C19.9735 13.7859 20.1667 13.3196 20.1667 12.8333V1.83333C20.1667 1.3471 19.9735 0.880787 19.6297 0.536971C19.2859 0.193154 18.8196 0 18.3333 0ZM1.83333 1.83333H9.16667V12.8333H1.83333V1.83333ZM18.3333 12.8333H10.0833V1.83333H18.3361L18.3333 12.8333ZM17.4167 8.70833C17.4167 8.45625 17.2104 8.25 16.9583 8.25H16.0417C15.7896 8.25 15.5833 8.45625 15.5833 8.70833V11.4583C15.5833 11.7104 15.7896 11.9167 16.0417 11.9167H16.9583C17.2104 11.9167 17.4167 11.7104 17.4167 11.4583V8.70833ZM14.6667 3.20833C14.6667 2.95625 14.4604 2.75 14.2083 2.75H11.4583C11.2062 2.75 11 2.95625 11 3.20833V7.79167C11 8.04375 11.2062 8.25 11.4583 8.25H14.2083C14.4604 8.25 14.6667 8.04375 14.6667 7.79167V3.20833ZM16.0417 5.5H16.9583C17.2104 5.5 17.4167 5.29375 17.4167 5.04167C17.4167 4.78958 17.2104 4.58333 16.9583 4.58333H16.0417C15.7896 4.58333 15.5833 4.78958 15.5833 5.04167C15.5833 5.29375 15.7896 5.5 16.0417 5.5ZM16.0417 7.33333H16.9583C17.2104 7.33333 17.4167 7.12708 17.4167 6.875C17.4167 6.62292 17.2104 6.41667 16.9583 6.41667H16.0417C15.7896 6.41667 15.5833 6.62292 15.5833 6.875C15.5833 7.12708 15.7896 7.33333 16.0417 7.33333ZM11.4583 10.0833H14.2083C14.4604 10.0833 14.6667 9.87708 14.6667 9.625C14.6667 9.37292 14.4604 9.16667 14.2083 9.16667H11.4583C11.2062 9.16667 11 9.37292 11 9.625C11 9.87708 11.2062 10.0833 11.4583 10.0833ZM14.2083 11H11.4583C11.2062 11 11 11.2062 11 11.4583C11 11.7104 11.2062 11.9167 11.4583 11.9167H14.2083C14.4604 11.9167 14.6667 11.7104 14.6667 11.4583C14.6667 11.2062 14.4604 11 14.2083 11ZM16.0417 3.66667H16.9583C17.2104 3.66667 17.4167 3.46042 17.4167 3.20833C17.4167 2.95625 17.2104 2.75 16.9583 2.75H16.0417C15.7896 2.75 15.5833 2.95625 15.5833 3.20833C15.5833 3.46042 15.7896 3.66667 16.0417 3.66667ZM8.25 3.20833C8.25 2.95625 8.04375 2.75 7.79167 2.75H3.20833C2.95625 2.75 2.75 2.95625 2.75 3.20833V5.95833C2.75 6.21042 2.95625 6.41667 3.20833 6.41667H7.79167C8.04375 6.41667 8.25 6.21042 8.25 5.95833V3.20833ZM7.79258 9.16667H3.20925C2.95808 9.16667 2.75092 9.37292 2.75092 9.625C2.75092 9.87708 2.95808 10.0833 3.20925 10.0833H7.79258C8.04375 10.0833 8.25 9.87708 8.25 9.625C8.25 9.37292 8.04375 9.16667 7.79258 9.16667ZM7.79258 7.33333H3.20925C2.95808 7.33333 2.75092 7.53958 2.75092 7.79167C2.75092 8.04375 2.95808 8.25 3.20925 8.25H7.79258C8.04375 8.25 8.25 8.04375 8.25 7.79167C8.25 7.53958 8.04375 7.33333 7.79258 7.33333ZM7.79258 11H3.20925C2.95808 11 2.75092 11.2062 2.75092 11.4583C2.75092 11.7104 2.95808 11.9167 3.20925 11.9167H7.79258C8.04375 11.9167 8.25 11.7104 8.25 11.4583C8.25 11.2062 8.04375 11 7.79258 11Z" fill="#333333"/>
</svg>
