<svg width="200" height="42" viewBox="0 0 200 42" fill="none" xmlns="http://www.w3.org/2000/svg">
<path fill-rule="evenodd" clip-rule="evenodd" d="M12.7555 12L2 23H7.36619C12.6169 23 12.8709 22.86 19.1145 16.5C22.6241 12.925 25.8388 10 26.2586 10C26.9229 10 29.4533 16.626 29.4533 18.366C29.4533 18.715 27.6586 19 25.4651 19C21.7309 19 18.9581 20.364 18.9581 22.2C18.9581 22.64 29.5593 23 42.5156 23H66.0741L68.381 16.969C69.6509 13.652 71.1244 10.682 71.6565 10.369C73.7209 9.153 73.8511 11.257 72.0123 16.128C70.3992 20.403 70.3257 21.353 71.5516 22.103C72.3523 22.593 81.5094 22.883 91.8996 22.747L110.791 22.5L113.199 17.879C114.523 15.337 115.704 11.962 115.822 10.379L116.039 7.5H104.494H92.9491L90.3253 12.746C88.1004 17.195 87.2628 17.993 84.8154 17.996C81.458 18.001 81.4601 18.007 83.4499 13.468C84.4396 11.21 85.677 10 86.9952 10C89.2265 10 91.7569 7.697 90.6664 6.658C90.2865 6.296 89.1216 6 88.0773 6C86.4862 6 86.3403 5.596 87.1768 3.5C88.1549 1.048 88.0773 1 83.1215 1C78.7764 1 77.9033 1.344 76.8957 3.451C75.8588 5.619 74.9614 5.937 69.1188 6.201L62.5131 6.5L60.4351 12.25C58.5785 17.39 58.0495 18 55.4499 18C52.0809 18 52.0116 17.686 54.117 12C54.9828 9.662 55.6912 7.33 55.6912 6.819C55.6912 6.308 53.4516 6.028 50.7134 6.195C45.7376 6.5 45.7345 6.502 43.7603 11.75C42.673 14.638 41.4598 17 41.062 17C40.6653 17 39.2485 13.4 37.9135 9L35.488 1H29.4995H23.5109L12.7555 12ZM105.619 11.328C105.913 12.058 105.674 13.858 105.088 15.328C104.256 17.411 103.322 18 100.847 18C97.2553 18 96.9919 17.154 99.2735 12.95C100.946 9.867 104.649 8.92 105.619 11.328ZM51.5761 30.583C51.6265 31.748 51.8752 31.985 52.21 31.188C52.5133 30.466 52.4755 29.603 52.1271 29.271C51.7786 28.939 51.531 29.529 51.5761 30.583ZM18.4334 31C18.0765 31.55 18.2854 32 18.8962 32C19.507 32 20.0076 31.55 20.0076 31C20.0076 30.45 19.7998 30 19.5448 30C19.2898 30 18.7902 30.45 18.4334 31Z" fill="#C61414"/>
<path fill-rule="evenodd" clip-rule="evenodd" d="M120.184 7.25C118.611 11.238 116.681 16.017 115.894 17.872C113.813 22.781 113.969 23 119.546 23C124.556 23 124.645 22.945 125.873 19.039L127.118 15.077L136.272 14.789L145.425 14.5L147.743 10C150.504 4.641 150.758 1.437 148.488 0.607C147.574 0.273 141.477 0 134.936 0H123.044L120.184 7.25ZM139.653 5.453C139.653 5.702 139.105 7.052 138.434 8.453C137.437 10.539 136.486 11 133.187 11C128.685 11 128.771 11.098 130.181 7.565C131.046 5.398 131.86 5 135.428 5C137.752 5 139.653 5.204 139.653 5.453ZM151.49 7.25C150.53 8.435 144.9 21.472 144.9 22.511C144.9 22.78 147.17 23 149.944 23H154.988L157.138 17.25L159.287 11.5L164.553 11.202C168.529 10.977 170.409 10.305 172.235 8.452L174.653 6H163.579C155.959 6 152.188 6.39 151.49 7.25ZM175.676 7.219C173.377 10.104 169.01 21.372 169.873 22.194C170.377 22.675 176.182 22.941 182.771 22.784L194.752 22.5L197.086 18C198.368 15.525 199.549 11.925 199.709 10L200 6.5L188.348 6.219C179.818 6.013 176.424 6.28 175.676 7.219ZM188.98 12.777C188.98 15.441 185.979 19 183.735 19C180.917 19 180.572 17.932 182.201 14.24C183.282 11.791 184.283 11 186.306 11C188.169 11 188.98 11.539 188.98 12.777ZM51.5761 30.583C51.6265 31.748 51.8752 31.985 52.21 31.188C52.5133 30.466 52.4755 29.603 52.1271 29.271C51.7787 28.939 51.531 29.529 51.5761 30.583ZM18.4334 31C18.0765 31.55 18.2854 32 18.8962 32C19.507 32 20.0077 31.55 20.0077 31C20.0077 30.45 19.7998 30 19.5448 30C19.2898 30 18.7902 30.45 18.4334 31ZM178.485 31C178.485 31.55 178.957 32 179.534 32C180.112 32 180.584 31.55 180.584 31C180.584 30.45 180.112 30 179.534 30C178.957 30 178.485 30.45 178.485 31Z" fill="black"/>
<path d="M9.824 26.4L6.864 32H5.48L4.992 28.232L2.968 32H1.576L0.864 26.4H2.144L2.64 30.336L4.744 26.4H5.944L6.424 30.368L8.536 26.4H9.824ZM24.1287 26.4L21.1687 32H19.7847L19.2967 28.232L17.2727 32H15.8807L15.1687 26.4H16.4487L16.9447 30.336L19.0487 26.4H20.2487L20.7287 30.368L22.8407 26.4H24.1287ZM38.4334 26.4L35.4734 32H34.0894L33.6014 28.232L31.5774 32H30.1854L29.4734 26.4H30.7534L31.2494 30.336L33.3534 26.4H34.5534L35.0334 30.368L37.1454 26.4H38.4334ZM43.3294 32.064C43.116 32.064 42.94 31.9973 42.8014 31.864C42.6627 31.7253 42.5934 31.552 42.5934 31.344C42.5934 31.0987 42.6734 30.8987 42.8334 30.744C42.9934 30.5893 43.1907 30.512 43.4254 30.512C43.6387 30.512 43.812 30.5787 43.9454 30.712C44.084 30.8453 44.1534 31.0187 44.1534 31.232C44.1534 31.472 44.0707 31.672 43.9054 31.832C43.7454 31.9867 43.5534 32.064 43.3294 32.064ZM54.1769 30.8H51.5689L50.8409 32H49.4569L53.0809 26.4H54.3609L55.7369 32H54.4409L54.1769 30.8ZM53.9609 29.816L53.4889 27.656L52.1689 29.816H53.9609ZM63.8408 32.096C63.1368 32.096 62.5848 31.9227 62.1848 31.576C61.7848 31.224 61.5848 30.744 61.5848 30.136C61.5848 29.96 61.6061 29.76 61.6488 29.536L62.2728 26.4H63.5768L62.9528 29.512C62.9208 29.688 62.9048 29.8453 62.9048 29.984C62.9048 30.32 62.9954 30.5733 63.1768 30.744C63.3634 30.9093 63.6328 30.992 63.9848 30.992C64.3794 30.992 64.6941 30.8747 64.9288 30.64C65.1634 30.4053 65.3341 30.0293 65.4408 29.512L66.0648 26.4H67.3368L66.7048 29.592C66.3634 31.2613 65.4088 32.096 63.8408 32.096ZM74.4757 27.456H72.6837L72.8997 26.4H77.7797L77.5637 27.456H75.7797L74.8677 32H73.5717L74.4757 27.456ZM85.1829 32.096C84.6229 32.096 84.1375 31.9947 83.7269 31.792C83.3162 31.5893 83.0015 31.304 82.7829 30.936C82.5642 30.568 82.4549 30.144 82.4549 29.664C82.4549 29.0293 82.5989 28.4587 82.8869 27.952C83.1802 27.44 83.5882 27.0373 84.1109 26.744C84.6389 26.4507 85.2415 26.304 85.9189 26.304C86.4789 26.304 86.9642 26.4053 87.3749 26.608C87.7855 26.8107 88.1002 27.096 88.3189 27.464C88.5375 27.832 88.6469 28.256 88.6469 28.736C88.6469 29.3707 88.5002 29.944 88.2069 30.456C87.9189 30.9627 87.5109 31.3627 86.9829 31.656C86.4602 31.9493 85.8602 32.096 85.1829 32.096ZM85.2949 30.992C85.7055 30.992 86.0655 30.8933 86.3749 30.696C86.6842 30.4987 86.9215 30.2347 87.0869 29.904C87.2522 29.5733 87.3349 29.208 87.3349 28.808C87.3349 28.3813 87.2015 28.0427 86.9349 27.792C86.6682 27.536 86.2922 27.408 85.8069 27.408C85.3962 27.408 85.0362 27.5067 84.7269 27.704C84.4175 27.9013 84.1802 28.1653 84.0149 28.496C83.8495 28.8267 83.7669 29.192 83.7669 29.592C83.7669 30.0187 83.9002 30.36 84.1669 30.616C84.4335 30.8667 84.8095 30.992 85.2949 30.992ZM97.4129 26.4C98.1115 26.4 98.6502 26.5547 99.0289 26.864C99.4129 27.168 99.6049 27.5947 99.6049 28.144C99.6049 28.6133 99.4929 29.024 99.2689 29.376C99.0502 29.7227 98.7355 29.9893 98.3249 30.176C97.9195 30.3627 97.4395 30.456 96.8849 30.456H95.6369L95.3329 32H94.0289L95.1489 26.4H97.4129ZM96.9409 29.4C97.3729 29.4 97.7062 29.3013 97.9409 29.104C98.1755 28.9067 98.2929 28.624 98.2929 28.256C98.2929 27.9893 98.2022 27.7893 98.0209 27.656C97.8449 27.5227 97.5889 27.456 97.2529 27.456H96.2369L95.8449 29.4H96.9409ZM110.402 28.136C110.402 28.6587 110.261 29.1067 109.978 29.48C109.695 29.8533 109.303 30.1173 108.802 30.272L109.778 32H108.41L107.53 30.432H106.426L106.114 32H104.81L105.93 26.4H108.21C108.903 26.4 109.442 26.552 109.826 26.856C110.21 27.16 110.402 27.5867 110.402 28.136ZM107.73 29.4C108.162 29.4 108.495 29.3013 108.73 29.104C108.97 28.9067 109.09 28.624 109.09 28.256C109.09 27.9893 108.999 27.7893 108.818 27.656C108.637 27.5227 108.378 27.456 108.042 27.456H107.018L106.626 29.4H107.73ZM118.597 32.096C118.037 32.096 117.552 31.9947 117.141 31.792C116.73 31.5893 116.416 31.304 116.197 30.936C115.978 30.568 115.869 30.144 115.869 29.664C115.869 29.0293 116.013 28.4587 116.301 27.952C116.594 27.44 117.002 27.0373 117.525 26.744C118.053 26.4507 118.656 26.304 119.333 26.304C119.893 26.304 120.378 26.4053 120.789 26.608C121.2 26.8107 121.514 27.096 121.733 27.464C121.952 27.832 122.061 28.256 122.061 28.736C122.061 29.3707 121.914 29.944 121.621 30.456C121.333 30.9627 120.925 31.3627 120.397 31.656C119.874 31.9493 119.274 32.096 118.597 32.096ZM118.709 30.992C119.12 30.992 119.48 30.8933 119.789 30.696C120.098 30.4987 120.336 30.2347 120.501 29.904C120.666 29.5733 120.749 29.208 120.749 28.808C120.749 28.3813 120.616 28.0427 120.349 27.792C120.082 27.536 119.706 27.408 119.221 27.408C118.81 27.408 118.45 27.5067 118.141 27.704C117.832 27.9013 117.594 28.1653 117.429 28.496C117.264 28.8267 117.181 29.192 117.181 29.592C117.181 30.0187 117.314 30.36 117.581 30.616C117.848 30.8667 118.224 30.992 118.709 30.992ZM127.775 32.064C127.561 32.064 127.385 31.9973 127.247 31.864C127.108 31.7253 127.039 31.552 127.039 31.344C127.039 31.0987 127.119 30.8987 127.279 30.744C127.439 30.5893 127.636 30.512 127.871 30.512C128.084 30.512 128.257 30.5787 128.391 30.712C128.529 30.8453 128.599 31.0187 128.599 31.232C128.599 31.472 128.516 31.672 128.351 31.832C128.191 31.9867 127.999 32.064 127.775 32.064ZM137.168 32.096C136.608 32.096 136.118 31.9947 135.696 31.792C135.28 31.5893 134.96 31.304 134.736 30.936C134.512 30.568 134.4 30.144 134.4 29.664C134.4 29.0293 134.544 28.4587 134.832 27.952C135.126 27.44 135.536 27.0373 136.064 26.744C136.592 26.4507 137.198 26.304 137.88 26.304C138.382 26.304 138.824 26.3893 139.208 26.56C139.592 26.7307 139.883 26.976 140.08 27.296L139.144 28.064C138.846 27.6267 138.395 27.408 137.792 27.408C137.382 27.408 137.019 27.504 136.704 27.696C136.39 27.888 136.144 28.1493 135.968 28.48C135.798 28.8107 135.712 29.1787 135.712 29.584C135.712 30.016 135.848 30.36 136.12 30.616C136.398 30.8667 136.784 30.992 137.28 30.992C137.872 30.992 138.368 30.776 138.768 30.344L139.536 31.128C138.982 31.7733 138.192 32.096 137.168 32.096ZM147.878 32.096C147.318 32.096 146.833 31.9947 146.422 31.792C146.012 31.5893 145.697 31.304 145.478 30.936C145.26 30.568 145.15 30.144 145.15 29.664C145.15 29.0293 145.294 28.4587 145.582 27.952C145.876 27.44 146.284 27.0373 146.806 26.744C147.334 26.4507 147.937 26.304 148.614 26.304C149.174 26.304 149.66 26.4053 150.07 26.608C150.481 26.8107 150.796 27.096 151.014 27.464C151.233 27.832 151.342 28.256 151.342 28.736C151.342 29.3707 151.196 29.944 150.902 30.456C150.614 30.9627 150.206 31.3627 149.678 31.656C149.156 31.9493 148.556 32.096 147.878 32.096ZM147.99 30.992C148.401 30.992 148.761 30.8933 149.07 30.696C149.38 30.4987 149.617 30.2347 149.782 29.904C149.948 29.5733 150.03 29.208 150.03 28.808C150.03 28.3813 149.897 28.0427 149.63 27.792C149.364 27.536 148.988 27.408 148.502 27.408C148.092 27.408 147.732 27.5067 147.422 27.704C147.113 27.9013 146.876 28.1653 146.71 28.496C146.545 28.8267 146.462 29.192 146.462 29.592C146.462 30.0187 146.596 30.36 146.862 30.616C147.129 30.8667 147.505 30.992 147.99 30.992ZM164.148 26.4L163.036 32H161.82L162.476 28.672L160.34 31.408H159.764L158.612 28.64L157.94 32H156.724L157.844 26.4H158.9L160.3 29.888L163.036 26.4H164.148ZM169.853 32.064C169.639 32.064 169.463 31.9973 169.325 31.864C169.186 31.7253 169.117 31.552 169.117 31.344C169.117 31.0987 169.197 30.8987 169.357 30.744C169.517 30.5893 169.714 30.512 169.949 30.512C170.162 30.512 170.335 30.5787 170.469 30.712C170.607 30.8453 170.677 31.0187 170.677 31.232C170.677 31.472 170.594 31.672 170.429 31.832C170.269 31.9867 170.077 32.064 169.853 32.064ZM182.658 26.4L179.114 32H177.842L176.538 26.4H177.874L178.778 30.392L181.314 26.4H182.658ZM193.261 26.4L192.141 32H191.077L188.989 28.496L188.285 32H187.005L188.125 26.4H189.197L191.285 29.912L191.981 26.4H193.261Z" fill="#727171"/>
</svg>
