<svg width="40" height="40" viewBox="0 0 40 40" fill="none" xmlns="http://www.w3.org/2000/svg">
<path d="M22.9167 21.6666H22.2583L22.025 21.4416C22.5458 20.8366 22.9264 20.124 23.1396 19.3547C23.3528 18.5854 23.3934 17.7784 23.2583 16.9916C22.8667 14.675 20.9333 12.825 18.6 12.5416C17.7797 12.4379 16.9465 12.5231 16.1642 12.7909C15.3819 13.0587 14.6712 13.5018 14.0865 14.0865C13.5019 14.6712 13.0587 15.3819 12.7909 16.1642C12.5232 16.9465 12.4379 17.7797 12.5417 18.6C12.825 20.9333 14.675 22.8666 16.9917 23.2583C17.7785 23.3934 18.5854 23.3528 19.3547 23.1396C20.124 22.9264 20.8366 22.5458 21.4417 22.025L21.6667 22.2583V22.9166L25.2083 26.4583C25.55 26.8 26.1083 26.8 26.45 26.4583C26.7917 26.1166 26.7917 25.5583 26.45 25.2166L22.9167 21.6666ZM17.9167 21.6666C15.8417 21.6666 14.1667 19.9916 14.1667 17.9166C14.1667 15.8416 15.8417 14.1666 17.9167 14.1666C19.9917 14.1666 21.6667 15.8416 21.6667 17.9166C21.6667 19.9916 19.9917 21.6666 17.9167 21.6666Z" fill="#D00000"/>
</svg>
