<svg width="40" height="40" viewBox="0 0 40 40" fill="none" xmlns="http://www.w3.org/2000/svg">
<path d="M27.3333 13H10.8333C10.3471 13 9.88079 13.1932 9.53697 13.537C9.19315 13.8808 9 14.3471 9 14.8333V25.8333C9 26.3196 9.19315 26.7859 9.53697 27.1297C9.88079 27.4735 10.3471 27.6667 10.8333 27.6667H27.3333C27.8196 27.6667 28.2859 27.4735 28.6297 27.1297C28.9735 26.7859 29.1667 26.3196 29.1667 25.8333V14.8333C29.1667 14.3471 28.9735 13.8808 28.6297 13.537C28.2859 13.1932 27.8196 13 27.3333 13ZM10.8333 14.8333H18.1667V25.8333H10.8333V14.8333ZM27.3333 25.8333H19.0833V14.8333H27.3361L27.3333 25.8333ZM26.4167 21.7083C26.4167 21.4562 26.2104 21.25 25.9583 21.25H25.0417C24.7896 21.25 24.5833 21.4562 24.5833 21.7083V24.4583C24.5833 24.7104 24.7896 24.9167 25.0417 24.9167H25.9583C26.2104 24.9167 26.4167 24.7104 26.4167 24.4583V21.7083ZM23.6667 16.2083C23.6667 15.9562 23.4604 15.75 23.2083 15.75H20.4583C20.2062 15.75 20 15.9562 20 16.2083V20.7917C20 21.0437 20.2062 21.25 20.4583 21.25H23.2083C23.4604 21.25 23.6667 21.0437 23.6667 20.7917V16.2083ZM25.0417 18.5H25.9583C26.2104 18.5 26.4167 18.2937 26.4167 18.0417C26.4167 17.7896 26.2104 17.5833 25.9583 17.5833H25.0417C24.7896 17.5833 24.5833 17.7896 24.5833 18.0417C24.5833 18.2937 24.7896 18.5 25.0417 18.5ZM25.0417 20.3333H25.9583C26.2104 20.3333 26.4167 20.1271 26.4167 19.875C26.4167 19.6229 26.2104 19.4167 25.9583 19.4167H25.0417C24.7896 19.4167 24.5833 19.6229 24.5833 19.875C24.5833 20.1271 24.7896 20.3333 25.0417 20.3333ZM20.4583 23.0833H23.2083C23.4604 23.0833 23.6667 22.8771 23.6667 22.625C23.6667 22.3729 23.4604 22.1667 23.2083 22.1667H20.4583C20.2062 22.1667 20 22.3729 20 22.625C20 22.8771 20.2062 23.0833 20.4583 23.0833ZM23.2083 24H20.4583C20.2062 24 20 24.2062 20 24.4583C20 24.7104 20.2062 24.9167 20.4583 24.9167H23.2083C23.4604 24.9167 23.6667 24.7104 23.6667 24.4583C23.6667 24.2062 23.4604 24 23.2083 24ZM25.0417 16.6667H25.9583C26.2104 16.6667 26.4167 16.4604 26.4167 16.2083C26.4167 15.9562 26.2104 15.75 25.9583 15.75H25.0417C24.7896 15.75 24.5833 15.9562 24.5833 16.2083C24.5833 16.4604 24.7896 16.6667 25.0417 16.6667ZM17.25 16.2083C17.25 15.9562 17.0437 15.75 16.7917 15.75H12.2083C11.9562 15.75 11.75 15.9562 11.75 16.2083V18.9583C11.75 19.2104 11.9562 19.4167 12.2083 19.4167H16.7917C17.0437 19.4167 17.25 19.2104 17.25 18.9583V16.2083ZM16.7926 22.1667H12.2092C11.9581 22.1667 11.7509 22.3729 11.7509 22.625C11.7509 22.8771 11.9581 23.0833 12.2092 23.0833H16.7926C17.0437 23.0833 17.25 22.8771 17.25 22.625C17.25 22.3729 17.0437 22.1667 16.7926 22.1667ZM16.7926 20.3333H12.2092C11.9581 20.3333 11.7509 20.5396 11.7509 20.7917C11.7509 21.0437 11.9581 21.25 12.2092 21.25H16.7926C17.0437 21.25 17.25 21.0437 17.25 20.7917C17.25 20.5396 17.0437 20.3333 16.7926 20.3333ZM16.7926 24H12.2092C11.9581 24 11.7509 24.2062 11.7509 24.4583C11.7509 24.7104 11.9581 24.9167 12.2092 24.9167H16.7926C17.0437 24.9167 17.25 24.7104 17.25 24.4583C17.25 24.2062 17.0437 24 16.7926 24Z" fill="#333333"/>
</svg>
