<svg width="15" height="15" viewBox="0 0 15 15" fill="none" xmlns="http://www.w3.org/2000/svg">
<path d="M10.9167 9.66665H10.2583L10.025 9.44165C10.5458 8.83662 10.9264 8.12396 11.1396 7.35466C11.3528 6.58536 11.3934 5.77844 11.2583 4.99165C10.8667 2.67498 8.93334 0.824979 6.60001 0.541646C5.77969 0.437867 4.9465 0.523122 4.1642 0.790886C3.38189 1.05865 2.67121 1.50183 2.08654 2.08651C1.50186 2.67118 1.05868 3.38186 0.790917 4.16417C0.523153 4.94647 0.437898 5.77966 0.541676 6.59998C0.825009 8.93331 2.67501 10.8666 4.99168 11.2583C5.77847 11.3934 6.58539 11.3528 7.35469 11.1396C8.12399 10.9264 8.83665 10.5458 9.44168 10.025L9.66668 10.2583V10.9166L13.2083 14.4583C13.55 14.8 14.1083 14.8 14.45 14.4583C14.7917 14.1166 14.7917 13.5583 14.45 13.2166L10.9167 9.66665ZM5.91668 9.66665C3.84168 9.66665 2.16668 7.99165 2.16668 5.91665C2.16668 3.84165 3.84168 2.16665 5.91668 2.16665C7.99168 2.16665 9.66668 3.84165 9.66668 5.91665C9.66668 7.99165 7.99168 9.66665 5.91668 9.66665Z" fill="#D00000"/>
</svg>
